<svg width="24" height="24" viewBox="0 0 24 24" fill="none" xmlns="http://www.w3.org/2000/svg">
<path d="M16 11V8H13V7H16V4H17V7H20V8H17V11H16ZM19.2 20C17.3987 20 15.5927 19.5853 13.782 18.756C11.9713 17.9267 10.303 16.749 8.777 15.223C7.26367 13.697 6.08933 12.0233 5.254 10.202C4.418 8.38 4 6.57933 4 4.8V4H8.439L9.287 8.083L6.591 10.593C7.047 11.3837 7.51933 12.106 8.008 12.76C8.49667 13.414 9.00567 14.0037 9.535 14.529C10.0697 15.089 10.6723 15.6123 11.343 16.099C12.0137 16.5857 12.779 17.0657 13.639 17.539L16.25 14.831L20 15.587V20H19.2Z" fill="white"/>
</svg>
