<svg width="20" height="20" viewBox="0 0 20 20" fill="none" xmlns="http://www.w3.org/2000/svg">
<path d="M9.375 10.7422L1.25 5.51758V15H8.75V16.25H0V3.75H18.75V9.61914C18.6654 9.56055 18.571 9.4987 18.4668 9.43359C18.3626 9.36849 18.2552 9.30339 18.1445 9.23828C18.0339 9.17318 17.9232 9.11458 17.8125 9.0625C17.7018 9.01042 17.5977 8.9681 17.5 8.93555V5.51758L9.375 10.7422ZM15.9961 5H2.75391L9.375 9.25781L15.9961 5ZM20 15C20 15.6901 19.8698 16.3379 19.6094 16.9434C19.349 17.5488 18.9941 18.0794 18.5449 18.5352C18.0957 18.9909 17.5651 19.349 16.9531 19.6094C16.3411 19.8698 15.6901 20 15 20C14.3099 20 13.6621 19.8698 13.0566 19.6094C12.4512 19.349 11.9206 18.9941 11.4648 18.5449C11.0091 18.0957 10.651 17.5651 10.3906 16.9531C10.1302 16.3411 10 15.6901 10 15C10 14.3099 10.1302 13.6621 10.3906 13.0566C10.651 12.4512 11.0059 11.9206 11.4551 11.4648C11.9043 11.0091 12.4349 10.651 13.0469 10.3906C13.6589 10.1302 14.3099 10 15 10C15.6901 10 16.3379 10.1302 16.9434 10.3906C17.5488 10.651 18.0794 11.0059 18.5352 11.4551C18.9909 11.9043 19.349 12.4349 19.6094 13.0469C19.8698 13.6589 20 14.3099 20 15ZM15 18.75C15.5143 18.75 15.9993 18.6523 16.4551 18.457C16.9108 18.2617 17.3079 17.9948 17.6465 17.6562C17.985 17.3177 18.2552 16.9206 18.457 16.4648C18.6589 16.0091 18.7565 15.5208 18.75 15C18.75 14.4857 18.6523 14.0007 18.457 13.5449C18.2617 13.0892 17.9948 12.6921 17.6562 12.3535C17.3177 12.015 16.9173 11.7448 16.4551 11.543C15.9928 11.3411 15.5078 11.2435 15 11.25C14.4792 11.25 13.9941 11.3477 13.5449 11.543C13.0957 11.7383 12.6986 12.0052 12.3535 12.3438C12.0085 12.6823 11.7383 13.0827 11.543 13.5449C11.3477 14.0072 11.25 14.4922 11.25 15C11.25 15.5208 11.3477 16.0059 11.543 16.4551C11.7383 16.9043 12.0052 17.3014 12.3438 17.6465C12.6823 17.9915 13.0794 18.2617 13.5352 18.457C13.9909 18.6523 14.4792 18.75 15 18.75ZM15 12.5V15H16.875V16.25H13.75V12.5H15Z" fill="white"/>
</svg>
