<svg width="21" height="19" viewBox="0 0 21 19" fill="none" xmlns="http://www.w3.org/2000/svg">
<path d="M18.61 1.38003C18.1741 0.940851 17.6552 0.592695 17.0835 0.355789C16.5119 0.118884 15.8988 -0.00204641 15.28 2.61969e-05H4.71001C4.09064 2.48009e-05 3.47736 0.122183 2.90526 0.359508C2.33316 0.596833 1.81349 0.944663 1.376 1.38309C0.938502 1.82151 0.591775 2.34192 0.355664 2.91452C0.119553 3.48711 -0.00130439 4.10066 1.06167e-05 4.72003V11.32C-0.00130439 11.9394 0.119553 12.5529 0.355664 13.1255C0.591775 13.6981 0.938502 14.2185 1.376 14.657C1.81349 15.0954 2.33316 15.4432 2.90526 15.6805C3.47736 15.9179 4.09064 16.04 4.71001 16.04H7.04001L8.99001 17.98C9.11701 18.123 9.27401 18.235 9.45001 18.31C9.62501 18.382 9.81101 18.42 10 18.42C10.1907 18.4174 10.374 18.3807 10.55 18.31C10.7131 18.2323 10.8619 18.1275 10.99 18L12.99 16H15.32C15.9386 16.0004 16.5511 15.8788 17.1226 15.642C17.694 15.4051 18.2131 15.0579 18.65 14.62C19.0783 14.1788 19.4178 13.6594 19.65 13.09C19.884 12.515 20.007 11.9 20.01 11.28V4.68003C20.0055 4.06487 19.8795 3.45666 19.6393 2.89035C19.399 2.32403 19.0492 1.81076 18.61 1.38003ZM5.37001 9.55003C5.04169 9.55003 4.72075 9.45267 4.44776 9.27027C4.17478 9.08786 3.96201 8.82861 3.83637 8.52528C3.71073 8.22195 3.67786 7.88818 3.74191 7.56618C3.80596 7.24417 3.96406 6.94838 4.19621 6.71623C4.42837 6.48407 4.72415 6.32597 5.04616 6.26192C5.36817 6.19787 5.70194 6.23075 6.00527 6.35639C6.30859 6.48203 6.56785 6.69479 6.75025 6.96778C6.93265 7.24077 7.03001 7.56171 7.03001 7.89003C7.02739 8.32948 6.85165 8.75018 6.54091 9.06092C6.23017 9.37167 5.80946 9.5474 5.37001 9.55003ZM10 9.55003C9.78202 9.55003 9.56616 9.50709 9.36476 9.42367C9.16335 9.34024 8.98036 9.21797 8.82621 9.06382C8.67207 8.90968 8.54979 8.72668 8.46637 8.52528C8.38295 8.32388 8.34001 8.10802 8.34001 7.89003C8.34001 7.67203 8.38295 7.45617 8.46637 7.25477C8.54979 7.05337 8.67207 6.87037 8.82621 6.71623C8.98036 6.56208 9.16335 6.43981 9.36476 6.35639C9.56616 6.27296 9.78202 6.23003 10 6.23003C10.4403 6.23003 10.8625 6.40492 11.1738 6.71623C11.4851 7.02754 11.66 7.44977 11.66 7.89003C11.66 8.33029 11.4851 8.75251 11.1738 9.06382C10.8625 9.37513 10.4403 9.55003 10 9.55003ZM14.62 9.55003C14.2917 9.55003 13.9707 9.45267 13.6978 9.27027C13.4248 9.08786 13.212 8.82861 13.0864 8.52528C12.9607 8.22195 12.9279 7.88818 12.9919 7.56618C13.056 7.24417 13.2141 6.94838 13.4462 6.71623C13.6784 6.48407 13.9742 6.32597 14.2962 6.26192C14.6182 6.19787 14.9519 6.23075 15.2553 6.35639C15.5586 6.48203 15.8178 6.69479 16.0002 6.96778C16.1827 7.24077 16.28 7.56171 16.28 7.89003C16.2774 8.32948 16.1017 8.75018 15.7909 9.06092C15.4802 9.37167 15.0595 9.5474 14.62 9.55003Z" fill="white"/>
</svg>
