<svg width="150" height="150" viewBox="0 0 150 150" fill="none" xmlns="http://www.w3.org/2000/svg">
<path d="M47.6 137.5C44.8 137.5 42.4167 136.517 40.45 134.55C38.4833 132.583 37.5 130.202 37.5 127.406V22.5937C37.5 19.7187 38.4646 17.3187 40.3937 15.3938C42.3229 13.4688 44.725 12.5042 47.6 12.5H102.887C105.679 12.5 108.06 13.4833 110.031 15.45C111.998 17.4167 112.981 19.8 112.981 22.6V42.6875C114.535 42.8542 115.885 43.5 117.031 44.625C118.177 45.7458 118.75 47.0958 118.75 48.675V59.7312C118.75 61.3104 118.177 62.6604 117.031 63.7812C115.885 64.9021 114.535 65.5479 112.981 65.7187V127.4C112.981 130.192 111.998 132.573 110.031 134.544C108.065 136.51 105.683 137.494 102.887 137.494L47.6 137.5ZM47.6 131.25H102.887C104.008 131.25 104.929 130.89 105.65 130.169C106.371 129.448 106.731 128.527 106.731 127.406V22.5937C106.731 21.4729 106.371 20.5521 105.65 19.8313C104.929 19.1104 104.008 18.75 102.887 18.75H47.6C46.475 18.75 45.5521 19.1104 44.8312 19.8313C44.1104 20.5521 43.75 21.475 43.75 22.6V127.406C43.75 128.527 44.1104 129.448 44.8312 130.169C45.5521 130.89 46.475 131.25 47.6 131.25ZM69.0625 89.425L95.675 62.8125L91.25 58.3875L69.0625 80.575L60.3125 71.825L55.8875 76.25L69.0625 89.425Z" fill="black"/>
</svg>
