<svg width="150" height="150" viewBox="0 0 150 150" fill="none" xmlns="http://www.w3.org/2000/svg">
<path d="M30 26.25C30 23.2663 31.1853 20.4048 33.295 18.295C35.4048 16.1853 38.2663 15 41.25 15H93.75C96.7337 15 99.5952 16.1853 101.705 18.295C103.815 20.4048 105 23.2663 105 26.25V67.665C102.463 67.8949 99.9518 68.3594 97.5 69.0525V26.25C97.5 25.2554 97.1049 24.3016 96.4017 23.5984C95.6984 22.8951 94.7446 22.5 93.75 22.5H41.25C40.2554 22.5 39.3016 22.8951 38.5984 23.5984C37.8951 24.3016 37.5 25.2554 37.5 26.25V123.75C37.5 124.745 37.8951 125.698 38.5984 126.402C39.3016 127.105 40.2554 127.5 41.25 127.5H72C73.38 130.19 75.0225 132.69 76.9275 135H41.25C38.2663 135 35.4048 133.815 33.295 131.705C31.1853 129.595 30 126.734 30 123.75V26.25ZM67.665 105C67.4413 107.495 67.4413 110.005 67.665 112.5H56.25C55.2554 112.5 54.3016 112.105 53.5984 111.402C52.8951 110.698 52.5 109.745 52.5 108.75C52.5 107.755 52.8951 106.802 53.5984 106.098C54.3016 105.395 55.2554 105 56.25 105H67.665ZM142.5 108.75C142.5 117.701 138.944 126.285 132.615 132.615C126.285 138.944 117.701 142.5 108.75 142.5C99.7989 142.5 91.2145 138.944 84.8851 132.615C78.5558 126.285 75 117.701 75 108.75C75 99.7989 78.5558 91.2145 84.8851 84.8851C91.2145 78.5558 99.7989 75 108.75 75C117.701 75 126.285 78.5558 132.615 84.8851C138.944 91.2145 142.5 99.7989 142.5 108.75ZM112.5 93.75C112.5 92.7554 112.105 91.8016 111.402 91.0983C110.698 90.3951 109.745 90 108.75 90C107.755 90 106.802 90.3951 106.098 91.0983C105.395 91.8016 105 92.7554 105 93.75V105H93.75C92.7554 105 91.8016 105.395 91.0983 106.098C90.3951 106.802 90 107.755 90 108.75C90 109.745 90.3951 110.698 91.0983 111.402C91.8016 112.105 92.7554 112.5 93.75 112.5H105V123.75C105 124.745 105.395 125.698 106.098 126.402C106.802 127.105 107.755 127.5 108.75 127.5C109.745 127.5 110.698 127.105 111.402 126.402C112.105 125.698 112.5 124.745 112.5 123.75V112.5H123.75C124.745 112.5 125.698 112.105 126.402 111.402C127.105 110.698 127.5 109.745 127.5 108.75C127.5 107.755 127.105 106.802 126.402 106.098C125.698 105.395 124.745 105 123.75 105H112.5V93.75Z" fill="black"/>
</svg>
