<svg width="24" height="24" viewBox="0 0 24 24" fill="none" xmlns="http://www.w3.org/2000/svg">
<path d="M5 21V8.462C5 8.014 5.15733 7.63267 5.472 7.318C5.78667 7.00333 6.16767 6.846 6.615 6.846H13.673C14.1203 6.846 14.5013 7.00333 14.816 7.318C15.1313 7.63267 15.289 8.01367 15.289 8.461V21L10.154 18.346L5 21ZM6 19.398L10.154 17.228L14.289 19.398V8.462C14.289 8.282 14.231 8.13433 14.115 8.019C13.9997 7.90367 13.8523 7.846 13.673 7.846H6.615C6.43567 7.846 6.28833 7.90367 6.173 8.019C6.05767 8.13433 6 8.28167 6 8.461V19.398ZM18 17.442V4.616C18 4.436 17.9423 4.28833 17.827 4.173C17.7117 4.05767 17.5643 4 17.385 4H7.789V3H17.385C17.8317 3 18.2127 3.15733 18.528 3.472C18.8427 3.78667 19 4.168 19 4.616V17.442H18Z" fill="black"/>
</svg>
